<?xml version="1.0" encoding="UTF-8" standalone="no"?>
<svg
   viewBox="-10 -10 230.66766 70.3125"
   version="1.1"
   id="svg10"
   width="230.66766"
   height="70.3125"
   xmlns="http://www.w3.org/2000/svg"
   xmlns:svg="http://www.w3.org/2000/svg">
  <defs
     id="defs14" />
  <g
     transform="matrix(1.25,0,0,1.25,-3.4375,-11.25)"
     id="g6">
    <path
       id="circle2"
       style="fill:#f4a94c"
       d="m 51,15 a 6,6 0 0 1 -6,6 6,6 0 0 1 -6,-6 6,6 0 0 1 6,-6 6,6 0 0 1 6,6 z" />
    <path
       d="M 6,46 22,28 31,38 45,20 58,46"
       fill="none"
       stroke="#7e8cb0"
       stroke-width="6.5"
       stroke-linecap="round"
       stroke-linejoin="round"
       id="path4" />
  </g>
  <g
     aria-label="Seleya"
     id="text8"
     style="font-weight:700;font-size:46px;font-family:Lato;letter-spacing:-1.5;fill:#e8edf6"
     transform="translate(-3.4375,-19.25)">
    <path
       d="m 113.413,32.791 q -0.276,0.483 -0.598,0.713 -0.299,0.207 -0.759,0.207 -0.483,0 -1.058,-0.345 -0.552,-0.368 -1.334,-0.805 -0.782,-0.437 -1.84,-0.782 -1.035,-0.368 -2.461,-0.368 -1.288,0 -2.254,0.322 -0.966,0.299 -1.633,0.851 -0.644,0.552 -0.966,1.334 -0.322,0.759 -0.322,1.679 0,1.173 0.644,1.955 0.667,0.782 1.748,1.334 1.081,0.552 2.461,0.989 1.38,0.437 2.829,0.943 1.449,0.483 2.829,1.15 1.38,0.644 2.461,1.656 1.081,0.989 1.725,2.438 0.667,1.449 0.667,3.519 0,2.254 -0.782,4.232 -0.759,1.955 -2.254,3.427 -1.472,1.449 -3.611,2.3 -2.139,0.828 -4.899,0.828 -1.587,0 -3.128,-0.322 -1.541,-0.299 -2.967,-0.874 -1.403,-0.575 -2.645,-1.38 -1.242,-0.805 -2.208,-1.794 l 1.817,-2.967 q 0.23,-0.322 0.598,-0.529 0.368,-0.23 0.782,-0.23 0.575,0 1.242,0.483 0.667,0.46 1.587,1.035 0.92,0.575 2.139,1.058 1.242,0.46 2.967,0.46 2.645,0 4.094,-1.242 1.449,-1.265 1.449,-3.611 0,-1.311 -0.667,-2.139 -0.644,-0.828 -1.725,-1.38 -1.081,-0.575 -2.461,-0.966 -1.38,-0.391 -2.806,-0.851 -1.426,-0.46 -2.806,-1.104 -1.38,-0.644 -2.461,-1.679 -1.081,-1.035 -1.748,-2.576 -0.644,-1.564 -0.644,-3.841 0,-1.817 0.713,-3.542 0.736,-1.725 2.116,-3.059 1.38,-1.334 3.404,-2.139 2.024,-0.805 4.646,-0.805 2.944,0 5.428,0.92 2.484,0.92 4.232,2.576 z"
       id="path17" />
    <path
       d="m 133.67104,45.487 q 0,-1.104 -0.322,-2.07 -0.299,-0.989 -0.92,-1.725 -0.621,-0.736 -1.587,-1.15 -0.943,-0.437 -2.208,-0.437 -2.461,0 -3.887,1.403 -1.403,1.403 -1.794,3.979 z m -10.833,3.427 q 0.138,1.817 0.644,3.151 0.506,1.311 1.334,2.185 0.828,0.851 1.955,1.288 1.15,0.414 2.53,0.414 1.38,0 2.369,-0.322 1.012,-0.322 1.748,-0.713 0.759,-0.391 1.311,-0.713 0.575,-0.322 1.104,-0.322 0.713,0 1.058,0.529 l 1.633,2.07 q -0.943,1.104 -2.116,1.863 -1.173,0.736 -2.461,1.196 -1.265,0.437 -2.599,0.621 -1.311,0.184 -2.553,0.184 -2.461,0 -4.577,-0.805 -2.116,-0.828 -3.68,-2.415 -1.564,-1.61 -2.461,-3.956 -0.897,-2.369 -0.897,-5.474 0,-2.415 0.782,-4.531 0.782,-2.139 2.231,-3.703 1.472,-1.587 3.565,-2.507 2.116,-0.92 4.761,-0.92 2.231,0 4.117,0.713 1.886,0.713 3.243,2.093 1.357,1.357 2.116,3.358 0.782,1.978 0.782,4.531 0,1.288 -0.276,1.748 -0.276,0.437 -1.058,0.437 z"
       id="path19" />
    <path
       d="M 147.28206,25.822 V 60 h -5.681 V 25.822 Z"
       id="path21" />
    <path
       d="m 166.6661,45.487 q 0,-1.104 -0.322,-2.07 -0.299,-0.989 -0.92,-1.725 -0.621,-0.736 -1.587,-1.15 -0.943,-0.437 -2.208,-0.437 -2.461,0 -3.887,1.403 -1.403,1.403 -1.794,3.979 z m -10.833,3.427 q 0.138,1.817 0.644,3.151 0.506,1.311 1.334,2.185 0.828,0.851 1.955,1.288 1.15,0.414 2.53,0.414 1.38,0 2.369,-0.322 1.012,-0.322 1.748,-0.713 0.759,-0.391 1.311,-0.713 0.575,-0.322 1.104,-0.322 0.713,0 1.058,0.529 l 1.633,2.07 q -0.943,1.104 -2.116,1.863 -1.173,0.736 -2.461,1.196 -1.265,0.437 -2.599,0.621 -1.311,0.184 -2.553,0.184 -2.461,0 -4.577,-0.805 -2.116,-0.828 -3.68,-2.415 -1.564,-1.61 -2.461,-3.956 -0.897,-2.369 -0.897,-5.474 0,-2.415 0.782,-4.531 0.782,-2.139 2.231,-3.703 1.472,-1.587 3.565,-2.507 2.116,-0.92 4.761,-0.92 2.231,0 4.117,0.713 1.886,0.713 3.243,2.093 1.357,1.357 2.116,3.358 0.782,1.978 0.782,4.531 0,1.288 -0.276,1.748 -0.276,0.437 -1.058,0.437 z"
       id="path23" />
    <path
       d="m 195.29613,36.402 -12.857,30.084 q -0.253,0.598 -0.667,0.897 -0.391,0.322 -1.219,0.322 h -4.232 l 4.416,-9.476 -9.545,-21.827 h 4.991 q 0.667,0 1.035,0.322 0.391,0.322 0.575,0.736 l 5.014,12.236 q 0.253,0.621 0.414,1.242 0.184,0.621 0.345,1.265 0.207,-0.644 0.414,-1.265 0.207,-0.644 0.46,-1.265 l 4.738,-12.213 q 0.184,-0.46 0.598,-0.759 0.437,-0.299 0.966,-0.299 z"
       id="path25" />
    <path
       d="m 208.56216,49.926 q -2.461,0.115 -4.14,0.437 -1.679,0.299 -2.691,0.782 -1.012,0.483 -1.449,1.127 -0.437,0.644 -0.437,1.403 0,1.495 0.874,2.139 0.897,0.644 2.323,0.644 1.748,0 3.013,-0.621 1.288,-0.644 2.507,-1.932 z m -13.018,-10.235 q 4.071,-3.726 9.798,-3.726 2.07,0 3.703,0.69 1.633,0.667 2.76,1.886 1.127,1.196 1.702,2.875 0.598,1.679 0.598,3.68 V 60 h -2.576 q -0.805,0 -1.242,-0.23 -0.437,-0.253 -0.69,-0.989 l -0.506,-1.702 q -0.897,0.805 -1.748,1.426 -0.851,0.598 -1.771,1.012 -0.92,0.414 -1.978,0.621 -1.035,0.23 -2.3,0.23 -1.495,0 -2.76,-0.391 -1.265,-0.414 -2.185,-1.219 -0.92,-0.805 -1.426,-2.001 -0.506,-1.196 -0.506,-2.783 0,-0.897 0.299,-1.771 0.299,-0.897 0.966,-1.702 0.69,-0.805 1.771,-1.518 1.081,-0.713 2.645,-1.242 1.587,-0.529 3.68,-0.851 2.093,-0.345 4.784,-0.414 v -1.38 q 0,-2.369 -1.012,-3.496 -1.012,-1.15 -2.921,-1.15 -1.38,0 -2.3,0.322 -0.897,0.322 -1.587,0.736 -0.69,0.391 -1.265,0.713 -0.552,0.322 -1.242,0.322 -0.598,0 -1.012,-0.299 -0.414,-0.322 -0.667,-0.736 z"
       id="path27" />
  </g>
</svg>
